<svg height="1085" viewBox="0 0 1251.351 542.86844851" width="2500" xmlns="http://www.w3.org/2000/svg"><path d="m1127.713 185.186c-4.594-5.353-10.46-10.707-17.099-10.707-8.163 0-17.346 5.094-17.346 18.1 0 4.847 2.291 10.966 6.886 16.32 12.504 15.296 33.166 27.795 62.251 27.795 34.439 0 63.27-19.384 63.27-54.058 0-67.57-89.804-60.937-89.804-91.023 0-11.733 7.91-18.359 21.174-18.359 10.208 0 18.371 2.55 24.238 7.392 6.632 5.1 11.739 15.043 22.706 15.043 9.182 0 17.346-6.12 17.346-15.296 0-13.258-13.265-25.751-24.744-32.377-9.695-5.613-22.453-9.948-39.793-9.948-29.091.506-57.663 16.315-57.663 54.052 0 60.937 89.805 50.229 89.805 88.478 0 13.765-10.72 20.65-26.788 20.65-14.29 0-24.49-6.373-34.445-16.062zm-623.383-70.372c-11.998 2.29-19.643 7.138-19.643 18.612 0 11.727 7.397 18.105 19.383 19.63 20.669 2.298 27.813 9.437 27.813 25.245 0 14.53-11.998 22.435-34.957 22.435h-37.502v-129.013h40.565c15.314 0 22.965 9.176 22.965 22.947 0 11.986-7.145 18.106-18.63 20.138zm213.85 68.588c0 17.593 15.555 50.736 58.423 50.736 42.343 0 63.777-25.239 63.777-70.626v-101.472c0-13.264-7.657-21.163-18.371-21.163-11.48 0-18.365 7.899-18.365 21.163v102.237c0 23.2-7.91 34.168-26.022 34.427-30.87.506-17.605-32.136-39.546-33.914-9.695-.766-19.896 5.607-19.896 18.612zm341.12-74.961c4.342 0 9.696-2.291 12.758-8.924 4.848-10.454 9.695-30.345 9.695-39.268 0-12.24-5.613-19.884-18.883-19.884-13.518.506-19.13 9.176-19.13 25.238v14.53c0 18.106 5.1 28.308 15.56 28.308zm-400.821 11.727-41.065-68.33c-4.082-6.626-8.423-10.96-16.328-10.96-10.46 0-18.63 7.138-18.63 16.574 0 5.866 1.79 10.195 4.854 15.043l52.81 84.65v56.602c0 13.264 8.416 21.162 18.111 21.162 10.974 0 18.625-7.898 18.625-21.162v-56.602l52.81-84.65c3.062-4.848 4.847-9.177 4.847-15.043 0-9.436-8.164-16.575-18.63-16.575-7.898 0-12.24 4.341-16.321 10.961l-41.077 68.336zm-122.26 11.726c15.307-9.942 23.212-23.707 23.212-39.774 0-31.618-22.188-54.052-67.093-54.052h-51.025c-10.974 0-18.365 7.138-18.365 18.1v160.636c0 10.708 7.397 18.1 18.365 18.1l50.766.512c58.17.506 77.306-24.479 77.306-55.077 0-21.928-12.505-39.262-33.167-47.679a.405.405 0 0 1 -.235-.35.511.511 0 0 1 .235-.416zm412.331 101.99c-44.9 0-70.922-27.029-70.922-80.827v-91.023c0-13.258 7.398-21.163 18.365-21.163 10.714 0 18.371 7.905 18.371 21.163v88.22c0 36.205 11.733 47.678 34.186 47.678 22.447 0 34.186-11.473 34.186-47.679v-88.22c0-13.257 7.657-21.162 18.37-21.162 10.968 0 18.366 7.905 18.366 21.163v91.023c0 53.799-26.022 80.827-70.922 80.827z" fill="#813588"/><path d="m895.998 44.296c10.714 0 18.371 7.904 18.371 21.162v-3.424c0-13.258-7.657-21.163-18.37-21.163-10.974 0-18.366 7.905-18.366 21.163v3.424c0-13.258 7.398-21.162 18.365-21.162m18.371 109.382c0 36.205 11.733 47.679 34.186 47.679s34.186-11.474 34.186-47.68v-3.424c0 36.206-11.733 47.68-34.186 47.68s-34.186-11.474-34.186-47.68zm221.586-60.564q-.08.96-.085 1.924c0 29.796 88.087 23.592 89.763 89.118.012-.507.043-1.007.043-1.52 0-66.418-86.76-61.142-89.715-89.522m-534.875-48.818c7.91 0 12.239 4.335 16.327 10.967l41.07 68.323 41.078-68.329c4.081-6.632 8.416-10.967 16.327-10.967 9.924 0 17.768 6.427 18.546 15.145.048-.65.078-1.308.078-1.995 0-9.436-8.164-16.575-18.63-16.575-7.899 0-12.24 4.341-16.321 10.961l-41.077 68.335-41.071-68.323c-4.082-6.626-8.417-10.96-16.328-10.96-10.46 0-18.63 7.138-18.63 16.574 0 .687.036 1.344.085 1.99.783-8.713 8.621-15.14 18.546-15.14m509.528 133.601c6.632 0 12.505 5.354 17.093 10.708 9.948 9.69 20.156 16.062 34.445 16.062 16.074 0 26.788-6.885 26.788-20.65 0-.64-.03-1.26-.079-1.869-.796 12.722-11.262 19.094-26.71 19.094-14.288 0-24.496-6.372-34.444-16.061-4.588-5.354-10.455-10.708-17.093-10.708-8.163 0-17.346 5.1-17.346 18.1 0 .482.042.994.085 1.507.868-11.576 9.52-16.183 17.261-16.183m46.178-136.41c17.346 0 30.104 4.334 39.799 9.948 10.991 6.342 23.586 18.07 24.641 30.688a14.642 14.642 0 0 0 .103-1.736c0-13.264-13.265-25.75-24.744-32.377-9.695-5.613-22.453-9.948-39.793-9.948-29.091.512-57.663 16.32-57.663 54.052 0 .59.024 1.157.042 1.736.844-36.507 28.976-51.863 57.615-52.364m-438.607 141.904c0 .651.024 1.326.066 2.008.724-12.035 10.503-17.925 19.836-17.19 21.935 1.785 8.67 34.421 39.54 33.909 18.112-.254 26.022-11.215 26.022-34.421v-3.425c0 23.2-7.91 34.168-26.022 34.427-30.87.506-17.605-32.136-39.546-33.914-9.695-.766-19.896 5.607-19.896 18.612m282.927-142.53c-10.72 0-18.371 7.904-18.371 21.162v3.424c0-13.264 7.657-21.162 18.37-21.162 10.968 0 18.366 7.898 18.366 21.162v-3.424c0-13.258-7.398-21.163-18.365-21.163m61.769-.506c-13.524.506-19.137 9.176-19.137 25.238v3.425c0-16.062 5.607-24.732 19.137-25.245 12.613 0 18.298 6.934 18.823 18.142q.05-.837.054-1.676c0-12.24-5.613-19.884-18.877-19.884m-240.867.506c-11.48 0-18.365 7.905-18.365 21.163v3.424c0-13.264 6.885-21.162 18.365-21.162 10.714 0 18.37 7.898 18.37 21.162v-3.424c0-13.258-7.656-21.163-18.37-21.163m-380.697.621h51.026c43.946 0 66.128 21.5 67.05 52.057.012-.483.043-.947.043-1.43 0-31.617-22.188-54.051-67.093-54.051h-51.026c-10.973 0-18.365 7.138-18.365 18.1v3.424c0-10.961 7.398-18.1 18.365-18.1m63.018 73.322c-11.992 2.29-19.643 7.138-19.643 18.612 0 .603.03 1.188.066 1.766.723-10.28 8.182-14.771 19.577-16.954 11.48-2.038 18.624-8.157 18.624-20.137 0-.61-.036-1.194-.06-1.779-.645 10.889-7.627 16.55-18.57 18.492m-7.392 89.346c22.96 0 34.951-7.898 34.951-22.434 0-.754-.036-1.477-.066-2.195-.675 13.735-12.595 21.21-34.885 21.21h-37.502v3.42zm39.286-71.5a.405.405 0 0 1 -.235-.35.511.511 0 0 1 .235-.416 1.923 1.923 0 0 0 -1.79 3.4l1.79.79c20.276 8.26 32.66 25.118 33.125 46.462.018-.736.042-1.465.042-2.207a53.969 53.969 0 0 0 -2.575-16.363c-4.642-14.109-15.398-25.13-30.592-31.316m-202.364-100.85a22.182 22.182 0 0 1 15.7 6.42 21.82 21.82 0 0 1 6.542 15.423v281.89a21.36 21.36 0 0 1 -6.542 15.417 22.622 22.622 0 0 1 -15.7 6.42h-285.949a22.142 22.142 0 0 1 -15.694-6.42 21.82 21.82 0 0 1 -6.541-15.417v-281.89a21.374 21.374 0 0 1 6.541-15.422 22.622 22.622 0 0 1 15.694-6.422z" fill="#813588"/><path d="m243.077 284.403-68.54 19.535a11.178 11.178 0 0 1 -13.608-7.199l-51.797-177.307a10.74 10.74 0 0 1 7.585-13.36l70.903-20.302a44.333 44.333 0 0 1 45.52 12.595 47.869 47.869 0 0 1 -3.14 69.89c29.302 1.797 53.105 23.9 56.252 52.678 3.135 28.518-15.181 55.245-43.169 63.47" fill="#4b205a"/><path d="m169.828 317.811a21.77 21.77 0 0 1 -20.933-15.676l-53.1-181.672a21.529 21.529 0 0 1 14.91-26.728l72.996-20.806a50.643 50.643 0 0 1 14.127-1.797 64.856 64.856 0 0 1 48.137 21.325 64.09 64.09 0 0 1 14.126 34.433 57.67 57.67 0 0 1 -6.8 32.895 73.074 73.074 0 0 1 35.578 29.29 75.11 75.11 0 0 1 10.732 49.078 66.396 66.396 0 0 1 -17.009 35.723 69.89 69.89 0 0 1 -33.227 22.356l-73.514 20.813a25.793 25.793 0 0 1 -6.017.772zm30.345-234.096a41.082 41.082 0 0 0 -12.559 1.803l-71.157 20.294a11.065 11.065 0 0 0 -7.584 13.367l51.797 177.3a9.992 9.992 0 0 0 5.233 6.428 11.823 11.823 0 0 0 8.369 1.025l68.552-19.529a59.378 59.378 0 0 0 43.163-63.47c-3.141-28.777-26.95-50.88-56.253-52.677a46.666 46.666 0 0 0 16.75-32.889 49.915 49.915 0 0 0 -13.608-37.001 43.555 43.555 0 0 0 -32.703-14.651z" fill="#fefefe"/><path d="m264.27 237.122c0-30.062-24.328-54.22-54.938-54.733a46.042 46.042 0 0 0 3.66-66.81 43.516 43.516 0 0 0 -44.738-12.848l-59.387 16.96 51.803 176.789a9.992 9.992 0 0 0 5.233 6.427 11.823 11.823 0 0 0 8.369 1.025l48.661-13.873.784-.26a54.883 54.883 0 0 0 40.553-52.677" fill="#813588"/><path d="m421.09 273.465a4.891 4.891 0 0 1 1.568-3.654 5.227 5.227 0 0 1 3.762-1.52h43.863a5.125 5.125 0 0 1 3.738 1.593 5.215 5.215 0 0 1 1.598 3.828 4.992 4.992 0 0 1 -1.598 3.732 5.227 5.227 0 0 1 -3.75 1.538h-15.851v51.815a5.755 5.755 0 0 1 -1.797 4.25 6.005 6.005 0 0 1 -4.37 1.767 5.704 5.704 0 0 1 -4.245-1.767 5.848 5.848 0 0 1 -1.725-4.25v-51.815h-15.845a5.095 5.095 0 0 1 -3.798-1.592 5.408 5.408 0 0 1 -1.55-3.925m63.53 57.977v-58.472a5.004 5.004 0 0 1 1.592-3.739 5.559 5.559 0 0 1 4.034-1.537 5.354 5.354 0 0 1 5.275 5.276v20.782a23.38 23.38 0 0 1 7.386-5.619 21.934 21.934 0 0 1 10.075-2.34q7.868 0 11.865 4.028 4.007 4.034 4.004 11.588v30.032a5.167 5.167 0 0 1 -1.592 3.78 5.282 5.282 0 0 1 -3.877 1.592 5.393 5.393 0 0 1 -5.426-5.372v-26.107q0-5.363-2.563-7.602-2.559-2.243-7.44-2.243a14.229 14.229 0 0 0 -7.084 1.893 16.466 16.466 0 0 0 -5.354 4.624v29.435a5.161 5.161 0 0 1 -1.586 3.78 5.288 5.288 0 0 1 -3.882 1.592 5.393 5.393 0 0 1 -5.427-5.372m66.225-23.816h27.312a12.999 12.999 0 0 0 -.892-4.154 13.728 13.728 0 0 0 -2.363-3.876 11.1 11.1 0 0 0 -4.257-2.973 15.64 15.64 0 0 0 -6.12-1.133q-6.167 0-9.7 3.72a13.916 13.916 0 0 0 -3.98 8.416m-11.293 3.925a26.923 26.923 0 0 1 3.16-12.95 23.84 23.84 0 0 1 8.923-9.346 24.6 24.6 0 0 1 12.89-3.46 22.954 22.954 0 0 1 14.555 4.727 24.045 24.045 0 0 1 8.332 12.782 25.227 25.227 0 0 1 1.242 6.56 5.065 5.065 0 0 1 -1.567 3.701 5.125 5.125 0 0 1 -3.757 1.568h-32.388a13.349 13.349 0 0 0 4.702 9.013 15.82 15.82 0 0 0 10.775 3.618 25.142 25.142 0 0 0 11.045-2.472 5.559 5.559 0 0 1 2.237-.464 4.582 4.582 0 0 1 3.16 1.296 4.136 4.136 0 0 1 1.416 3.183 4.675 4.675 0 0 1 -2.038 3.63 15.218 15.218 0 0 1 -5.1 2.587 45.46 45.46 0 0 1 -6.168 1.44 36.185 36.185 0 0 1 -5.65.495q-11.196 0-18.48-7.187-7.289-7.18-7.295-18.72m86.224 17.358v-55.349a5.607 5.607 0 0 1 1.767-4.124 5.957 5.957 0 0 1 4.353-1.742 5.834 5.834 0 0 1 4.232 1.767 5.583 5.583 0 0 1 1.791 4.1v51.965h25.172a5.143 5.143 0 0 1 3.708 1.52 4.884 4.884 0 0 1 1.568 3.647 5.372 5.372 0 0 1 -1.568 3.931 5.034 5.034 0 0 1 -3.708 1.592h-29.947a7.099 7.099 0 0 1 -5.203-2.165 7.018 7.018 0 0 1 -2.165-5.142m59.159-21.284h27.312a13.023 13.023 0 0 0 -3.256-8.03 11.112 11.112 0 0 0 -4.256-2.973 15.633 15.633 0 0 0 -6.12-1.133q-6.168 0-9.707 3.72a13.916 13.916 0 0 0 -3.98 8.416m-11.286 3.925a26.988 26.988 0 0 1 3.153-12.95 23.864 23.864 0 0 1 8.936-9.346 24.6 24.6 0 0 1 12.884-3.46 22.954 22.954 0 0 1 14.555 4.727 24.01 24.01 0 0 1 8.332 12.782 25.227 25.227 0 0 1 1.242 6.56 5.065 5.065 0 0 1 -1.568 3.701 5.125 5.125 0 0 1 -3.75 1.568h-32.395a13.349 13.349 0 0 0 4.703 9.014 15.82 15.82 0 0 0 10.774 3.617 25.142 25.142 0 0 0 11.046-2.472 5.565 5.565 0 0 1 2.23-.464 4.582 4.582 0 0 1 3.166 1.296 4.136 4.136 0 0 1 1.417 3.184 4.657 4.657 0 0 1 -2.038 3.63 15.212 15.212 0 0 1 -5.1 2.586 45.46 45.46 0 0 1 -6.169 1.44 36.187 36.187 0 0 1 -5.65.495q-11.195 0-18.485-7.187-7.289-7.18-7.283-18.72m67.913 9.797a7.548 7.548 0 0 0 2.93 6.192 11.321 11.321 0 0 0 7.344 2.363 17.46 17.46 0 0 0 6.698-1.266 11.137 11.137 0 0 0 4.866-3.708v-7.355a11.112 11.112 0 0 0 -4.866-3.636 17.738 17.738 0 0 0 -6.698-1.242 11.404 11.404 0 0 0 -7.374 2.34 7.687 7.687 0 0 0 -2.9 6.312m-11.196-.199a16.277 16.277 0 0 1 1.55-7.235 13.419 13.419 0 0 1 4.1-5.022 19.27 19.27 0 0 1 5.522-2.81 20.114 20.114 0 0 1 6.126-.947 24.557 24.557 0 0 1 9.062 1.616 16.387 16.387 0 0 1 6.674 4.703v-7.235a7.563 7.563 0 0 0 -3.123-6.379 13.38 13.38 0 0 0 -8.242-2.351 21.341 21.341 0 0 0 -11.727 3.237 4.432 4.432 0 0 1 -2.261.645 4.359 4.359 0 0 1 -2.99-1.193 3.95 3.95 0 0 1 -1.327-3.087 3.474 3.474 0 0 1 .844-2.334 16.776 16.776 0 0 1 8.278-5.173 35.657 35.657 0 0 1 10.92-1.79 29.943 29.943 0 0 1 7.837.97 20.801 20.801 0 0 1 6.47 2.985 13.605 13.605 0 0 1 4.558 5.57 19.452 19.452 0 0 1 1.658 8.327v27.795a5.137 5.137 0 0 1 -1.61 3.78 5.215 5.215 0 0 1 -3.786 1.592h-.591a5.495 5.495 0 0 1 -3.22-1.242 4.336 4.336 0 0 1 -1.688-3.732v-.893a17.527 17.527 0 0 1 -6.795 4.824 23.333 23.333 0 0 1 -8.941 1.688 19.113 19.113 0 0 1 -11.673-4.052 14.313 14.313 0 0 1 -4.076-5.143 16.02 16.02 0 0 1 -1.55-7.114m57.712 10.292v-39.733a5.004 5.004 0 0 1 1.592-3.726 5.565 5.565 0 0 1 4.034-1.543 4.992 4.992 0 0 1 3.708 1.628 5.306 5.306 0 0 1 1.567 3.822v2.623q5.761-8.067 11.74-8.073a4.623 4.623 0 0 1 3.46 1.362 4.811 4.811 0 0 1 1.314 3.473 5.585 5.585 0 0 1 -1.465 4.01 6.22 6.22 0 0 1 -3.81 1.85q-7.507.688-11.245 5.964v28.391a5.102 5.102 0 0 1 -1.585 3.744 5.191 5.191 0 0 1 -3.787 1.58h-.199a5.083 5.083 0 0 1 -3.756-1.592 5.203 5.203 0 0 1 -1.567-3.78m35.427 0v-39.733a5.004 5.004 0 0 1 1.592-3.726 5.565 5.565 0 0 1 4.027-1.543 5.354 5.354 0 0 1 5.276 5.275v2.038a22.923 22.923 0 0 1 7.338-5.643 21.832 21.832 0 0 1 10.026-2.315q7.86 0 11.866 4.1 3.997 4.105 4.003 11.714v29.833a5.125 5.125 0 0 1 -1.616 3.78 5.366 5.366 0 0 1 -3.907 1.592 5.352 5.352 0 0 1 -5.372-5.366v-25.866q0-5.417-2.562-7.753c-1.706-1.556-4.16-2.34-7.338-2.34a14.41 14.41 0 0 0 -7.187 1.894 15.362 15.362 0 0 0 -5.251 4.624v29.435a5.167 5.167 0 0 1 -1.592 3.78 5.288 5.288 0 0 1 -3.883 1.592 5.393 5.393 0 0 1 -5.426-5.372m57.869 0v-39.733a5.005 5.005 0 0 1 1.591-3.726 5.565 5.565 0 0 1 4.028-1.543 5.354 5.354 0 0 1 5.275 5.275v39.733a5.16 5.16 0 0 1 -1.591 3.774 5.288 5.288 0 0 1 -3.883 1.592 5.393 5.393 0 0 1 -5.426-5.372m-1.29-57.133a6.342 6.342 0 0 1 1.965-4.673 6.784 6.784 0 0 1 9.502 0 6.315 6.315 0 0 1 1.971 4.673 6.72 6.72 0 1 1 -13.439 0m25.926 57.133v-39.733a4.985 4.985 0 0 1 1.592-3.726 5.565 5.565 0 0 1 4.027-1.543 5.354 5.354 0 0 1 5.276 5.275v2.038a22.856 22.856 0 0 1 7.337-5.643 21.826 21.826 0 0 1 10.027-2.315q7.859 0 11.865 4.1 3.998 4.105 4.004 11.714v29.833a5.125 5.125 0 0 1 -1.616 3.78 5.366 5.366 0 0 1 -3.907 1.592 5.352 5.352 0 0 1 -5.372-5.366v-25.866q0-5.417-2.562-7.753-2.569-2.333-7.338-2.34a14.446 14.446 0 0 0 -7.193 1.894 15.435 15.435 0 0 0 -5.245 4.624v29.435a5.185 5.185 0 0 1 -1.592 3.78 5.288 5.288 0 0 1 -3.883 1.592 5.393 5.393 0 0 1 -5.426-5.372m69.782-31.684q-3.753 4.25-3.756 11.25 0 6.983 3.756 11.251a12.707 12.707 0 0 0 10.027 4.263 14.976 14.976 0 0 0 7.187-1.887 13.879 13.879 0 0 0 5.305-4.703v-17.949a13.879 13.879 0 0 0 -5.305-4.63 15.187 15.187 0 0 0 -7.187-1.863 12.692 12.692 0 0 0 -10.027 4.268m-14.952 11.25q0-11.756 6.047-18.49 6.041-6.72 15.748-6.723a18.733 18.733 0 0 1 8.634 2.068 20.915 20.915 0 0 1 7.036 5.89v-1.941a5.145 5.145 0 0 1 1.586-3.799 5.475 5.475 0 0 1 4.01-1.567 5.084 5.084 0 0 1 3.72 1.586 5.185 5.185 0 0 1 1.58 3.78v41.77a26.146 26.146 0 0 1 -1.49 9.17 18.39 18.39 0 0 1 -3.907 6.494 19.58 19.58 0 0 1 -5.818 4.076 27.94 27.94 0 0 1 -6.843 2.213 42.796 42.796 0 0 1 -18.208-.802 15.669 15.669 0 0 1 -7.959-4.564 4.787 4.787 0 0 1 -.947-2.792 4.332 4.332 0 0 1 1.387-3.268 4.685 4.685 0 0 1 3.346-1.326 5.138 5.138 0 0 1 2.436.585 24.146 24.146 0 0 0 12.661 3.093 19.935 19.935 0 0 0 5.204-.651 15.857 15.857 0 0 0 4.582-2.062 9.634 9.634 0 0 0 3.412-4.01 14.062 14.062 0 0 0 1.248-6.15v-5.516a21.518 21.518 0 0 1 -6.994 5.98 18.103 18.103 0 0 1 -8.682 2.165q-9.695 0-15.736-6.674-6.06-6.675-6.053-18.534m103.636 1.586h24.177l-12.034-32.07-12.143 32.076zm-19.45 17.66a4.402 4.402 0 0 1 .542-2.238l21.2-53.913a9.777 9.777 0 0 1 3.725-4.666 10.078 10.078 0 0 1 5.728-1.743h.494a10.717 10.717 0 0 1 5.626 1.592 10.117 10.117 0 0 1 4.075 4.823l21.295 53.901a8.66 8.66 0 0 1 .398 2.243 6.58 6.58 0 0 1 -1.839 4.528 6.041 6.041 0 0 1 -4.678 2.032 6.187 6.187 0 0 1 -3.557-1.103 6.391 6.391 0 0 1 -2.364-2.906l-3.581-9.515h-30.942l-3.684 9.515a5.728 5.728 0 0 1 -2.315 2.906 6.415 6.415 0 0 1 -3.606 1.103 6.15 6.15 0 0 1 -4.678-1.954 6.493 6.493 0 0 1 -1.84-4.606zm83.733-9.002a14.58 14.58 0 0 0 5.324 4.594 14.773 14.773 0 0 0 7.115 1.917 12.387 12.387 0 0 0 9.996-4.522q3.78-4.522 3.787-11.69 0-7.055-3.787-11.558a12.391 12.391 0 0 0 -9.996-4.504 14.941 14.941 0 0 0 -7.115 1.893 14.102 14.102 0 0 0 -5.324 4.624zm-10.894 29.036v-58.574a5.01 5.01 0 0 1 1.591-3.732 5.565 5.565 0 0 1 4.028-1.543 5.354 5.354 0 0 1 5.275 5.275v1.936a19.776 19.776 0 0 1 6.916-5.764 19.221 19.221 0 0 1 8.803-2.092 19.778 19.778 0 0 1 15.7 6.915q5.996 6.91 5.993 18.842 0 11.983-6.017 18.943a19.733 19.733 0 0 1 -15.676 6.964 19.04 19.04 0 0 1 -8.682-2.038 20.434 20.434 0 0 1 -7.037-5.92v20.788a5.004 5.004 0 0 1 -1.615 3.708 5.36 5.36 0 0 1 -3.86 1.568 5.27 5.27 0 0 1 -3.828-1.568 5.028 5.028 0 0 1 -1.591-3.708zm69.848-29.036a14.601 14.601 0 0 0 5.33 4.594 14.755 14.755 0 0 0 7.114 1.917 12.387 12.387 0 0 0 9.997-4.522q3.78-4.522 3.78-11.69 0-7.055-3.78-11.558a12.408 12.408 0 0 0 -9.997-4.504 14.923 14.923 0 0 0 -7.114 1.893 14.123 14.123 0 0 0 -5.33 4.624zm-10.895 29.036v-58.574a5.01 5.01 0 0 1 1.592-3.732 5.565 5.565 0 0 1 4.034-1.543 5.354 5.354 0 0 1 5.27 5.275v1.936a20.425 20.425 0 0 1 31.423-.94q5.997 6.909 5.993 18.84 0 11.984-6.017 18.944a19.733 19.733 0 0 1 -15.676 6.964 19.004 19.004 0 0 1 -8.682-2.038 20.427 20.427 0 0 1 -7.042-5.92v20.788a5.004 5.004 0 0 1 -1.616 3.708 5.36 5.36 0 0 1 -3.858 1.568 5.27 5.27 0 0 1 -3.829-1.568 5.028 5.028 0 0 1 -1.592-3.708z" fill="#6d6e71"/><path d="m0 0h1251.351v389.19h-1251.351z" fill="none"/></svg>